<svg xmlns="http://www.w3.org/2000/svg" version="1.1" xmlns:xlink="http://www.w3.org/1999/xlink" xmlns:svgjs="http://svgjs.com/svgjs" width="1440" height="560" preserveAspectRatio="none" viewBox="0 0 1440 560"><g mask="url(&quot;#SvgjsMask1024&quot;)" fill="none"><path d="M222.33 56.43L287.28 93.93L287.28 168.93L222.33 206.43L157.38 168.93L157.38 93.93zM417.19 168.93L482.15 206.43L482.15 281.43L417.19 318.93L352.24 281.43L352.24 206.43zM417.19 393.93L482.15 431.43L482.15 506.43L417.19 543.93L352.24 506.43L352.24 431.43zM482.15 506.43L547.1 543.93L547.1 618.93L482.15 656.43L417.19 618.93L417.19 543.93zM547.1 -56.07L612.05 -18.57L612.05 56.43L547.1 93.93L482.15 56.43L482.15 -18.57zM547.1 168.93L612.05 206.43L612.05 281.43L547.1 318.93L482.15 281.43L482.15 206.43zM677.01 -56.07L741.96 -18.57L741.96 56.43L677.01 93.93L612.05 56.43L612.05 -18.57zM871.87 56.43L936.82 93.93L936.82 168.93L871.87 206.43L806.91 168.93L806.91 93.93zM936.82 -56.07L1001.78 -18.57L1001.78 56.43L936.82 93.93L871.87 56.43L871.87 -18.57zM1001.78 56.43L1066.73 93.93L1066.73 168.93L1001.78 206.43L936.82 168.93L936.82 93.93zM936.82 168.93L1001.78 206.43L1001.78 281.43L936.82 318.93L871.87 281.43L871.87 206.43zM1001.78 281.43L1066.73 318.93L1066.73 393.93L1001.78 431.43L936.82 393.93L936.82 318.93zM1001.78 506.43L1066.73 543.93L1066.73 618.93L1001.78 656.43L936.82 618.93L936.82 543.93zM1131.68 56.43L1196.64 93.93L1196.64 168.93L1131.68 206.43L1066.73 168.93L1066.73 93.93zM1066.73 393.93L1131.68 431.43L1131.68 506.43L1066.73 543.93L1001.78 506.43L1001.78 431.43zM1456.45 393.93L1521.41 431.43L1521.41 506.43L1456.45 543.93L1391.5 506.43L1391.5 431.43zM1521.41 506.43L1586.36 543.93L1586.36 618.93L1521.41 656.43L1456.45 618.93L1456.45 543.93z" stroke="rgba(69, 123, 157, 1)" stroke-width="2"></path><path d="M214.83 56.43 a7.5 7.5 0 1 0 15 0 a7.5 7.5 0 1 0 -15 0zM279.78 93.93 a7.5 7.5 0 1 0 15 0 a7.5 7.5 0 1 0 -15 0zM279.78 168.93 a7.5 7.5 0 1 0 15 0 a7.5 7.5 0 1 0 -15 0zM214.83 206.43 a7.5 7.5 0 1 0 15 0 a7.5 7.5 0 1 0 -15 0zM149.88 168.93 a7.5 7.5 0 1 0 15 0 a7.5 7.5 0 1 0 -15 0zM149.88 93.93 a7.5 7.5 0 1 0 15 0 a7.5 7.5 0 1 0 -15 0zM409.69 168.93 a7.5 7.5 0 1 0 15 0 a7.5 7.5 0 1 0 -15 0zM474.65 206.43 a7.5 7.5 0 1 0 15 0 a7.5 7.5 0 1 0 -15 0zM474.65 281.43 a7.5 7.5 0 1 0 15 0 a7.5 7.5 0 1 0 -15 0zM409.69 318.93 a7.5 7.5 0 1 0 15 0 a7.5 7.5 0 1 0 -15 0zM344.74 281.43 a7.5 7.5 0 1 0 15 0 a7.5 7.5 0 1 0 -15 0zM344.74 206.43 a7.5 7.5 0 1 0 15 0 a7.5 7.5 0 1 0 -15 0zM409.69 393.93 a7.5 7.5 0 1 0 15 0 a7.5 7.5 0 1 0 -15 0zM474.65 431.43 a7.5 7.5 0 1 0 15 0 a7.5 7.5 0 1 0 -15 0zM474.65 506.43 a7.5 7.5 0 1 0 15 0 a7.5 7.5 0 1 0 -15 0zM409.69 543.93 a7.5 7.5 0 1 0 15 0 a7.5 7.5 0 1 0 -15 0zM344.74 506.43 a7.5 7.5 0 1 0 15 0 a7.5 7.5 0 1 0 -15 0zM344.74 431.43 a7.5 7.5 0 1 0 15 0 a7.5 7.5 0 1 0 -15 0zM539.6 543.93 a7.5 7.5 0 1 0 15 0 a7.5 7.5 0 1 0 -15 0zM539.6 618.93 a7.5 7.5 0 1 0 15 0 a7.5 7.5 0 1 0 -15 0zM474.65 656.43 a7.5 7.5 0 1 0 15 0 a7.5 7.5 0 1 0 -15 0zM409.69 618.93 a7.5 7.5 0 1 0 15 0 a7.5 7.5 0 1 0 -15 0zM539.6 -56.07 a7.5 7.5 0 1 0 15 0 a7.5 7.5 0 1 0 -15 0zM604.55 -18.57 a7.5 7.5 0 1 0 15 0 a7.5 7.5 0 1 0 -15 0zM604.55 56.43 a7.5 7.5 0 1 0 15 0 a7.5 7.5 0 1 0 -15 0zM539.6 93.93 a7.5 7.5 0 1 0 15 0 a7.5 7.5 0 1 0 -15 0zM474.65 56.43 a7.5 7.5 0 1 0 15 0 a7.5 7.5 0 1 0 -15 0zM474.65 -18.57 a7.5 7.5 0 1 0 15 0 a7.5 7.5 0 1 0 -15 0zM539.6 168.93 a7.5 7.5 0 1 0 15 0 a7.5 7.5 0 1 0 -15 0zM604.55 206.43 a7.5 7.5 0 1 0 15 0 a7.5 7.5 0 1 0 -15 0zM604.55 281.43 a7.5 7.5 0 1 0 15 0 a7.5 7.5 0 1 0 -15 0zM539.6 318.93 a7.5 7.5 0 1 0 15 0 a7.5 7.5 0 1 0 -15 0zM669.51 -56.07 a7.5 7.5 0 1 0 15 0 a7.5 7.5 0 1 0 -15 0zM734.46 -18.57 a7.5 7.5 0 1 0 15 0 a7.5 7.5 0 1 0 -15 0zM734.46 56.43 a7.5 7.5 0 1 0 15 0 a7.5 7.5 0 1 0 -15 0zM669.51 93.93 a7.5 7.5 0 1 0 15 0 a7.5 7.5 0 1 0 -15 0zM864.37 56.43 a7.5 7.5 0 1 0 15 0 a7.5 7.5 0 1 0 -15 0zM929.32 93.93 a7.5 7.5 0 1 0 15 0 a7.5 7.5 0 1 0 -15 0zM929.32 168.93 a7.5 7.5 0 1 0 15 0 a7.5 7.5 0 1 0 -15 0zM864.37 206.43 a7.5 7.5 0 1 0 15 0 a7.5 7.5 0 1 0 -15 0zM799.41 168.93 a7.5 7.5 0 1 0 15 0 a7.5 7.5 0 1 0 -15 0zM799.41 93.93 a7.5 7.5 0 1 0 15 0 a7.5 7.5 0 1 0 -15 0zM929.32 -56.07 a7.5 7.5 0 1 0 15 0 a7.5 7.5 0 1 0 -15 0zM994.28 -18.57 a7.5 7.5 0 1 0 15 0 a7.5 7.5 0 1 0 -15 0zM994.28 56.43 a7.5 7.5 0 1 0 15 0 a7.5 7.5 0 1 0 -15 0zM864.37 -18.57 a7.5 7.5 0 1 0 15 0 a7.5 7.5 0 1 0 -15 0zM1059.23 93.93 a7.5 7.5 0 1 0 15 0 a7.5 7.5 0 1 0 -15 0zM1059.23 168.93 a7.5 7.5 0 1 0 15 0 a7.5 7.5 0 1 0 -15 0zM994.28 206.43 a7.5 7.5 0 1 0 15 0 a7.5 7.5 0 1 0 -15 0zM994.28 281.43 a7.5 7.5 0 1 0 15 0 a7.5 7.5 0 1 0 -15 0zM929.32 318.93 a7.5 7.5 0 1 0 15 0 a7.5 7.5 0 1 0 -15 0zM864.37 281.43 a7.5 7.5 0 1 0 15 0 a7.5 7.5 0 1 0 -15 0zM1059.23 318.93 a7.5 7.5 0 1 0 15 0 a7.5 7.5 0 1 0 -15 0zM1059.23 393.93 a7.5 7.5 0 1 0 15 0 a7.5 7.5 0 1 0 -15 0zM994.28 431.43 a7.5 7.5 0 1 0 15 0 a7.5 7.5 0 1 0 -15 0zM929.32 393.93 a7.5 7.5 0 1 0 15 0 a7.5 7.5 0 1 0 -15 0zM994.28 506.43 a7.5 7.5 0 1 0 15 0 a7.5 7.5 0 1 0 -15 0zM1059.23 543.93 a7.5 7.5 0 1 0 15 0 a7.5 7.5 0 1 0 -15 0zM1059.23 618.93 a7.5 7.5 0 1 0 15 0 a7.5 7.5 0 1 0 -15 0zM994.28 656.43 a7.5 7.5 0 1 0 15 0 a7.5 7.5 0 1 0 -15 0zM929.32 618.93 a7.5 7.5 0 1 0 15 0 a7.5 7.5 0 1 0 -15 0zM929.32 543.93 a7.5 7.5 0 1 0 15 0 a7.5 7.5 0 1 0 -15 0zM1124.18 56.43 a7.5 7.5 0 1 0 15 0 a7.5 7.5 0 1 0 -15 0zM1189.14 93.93 a7.5 7.5 0 1 0 15 0 a7.5 7.5 0 1 0 -15 0zM1189.14 168.93 a7.5 7.5 0 1 0 15 0 a7.5 7.5 0 1 0 -15 0zM1124.18 206.43 a7.5 7.5 0 1 0 15 0 a7.5 7.5 0 1 0 -15 0zM1124.18 431.43 a7.5 7.5 0 1 0 15 0 a7.5 7.5 0 1 0 -15 0zM1124.18 506.43 a7.5 7.5 0 1 0 15 0 a7.5 7.5 0 1 0 -15 0zM1448.95 393.93 a7.5 7.5 0 1 0 15 0 a7.5 7.5 0 1 0 -15 0zM1513.91 431.43 a7.5 7.5 0 1 0 15 0 a7.5 7.5 0 1 0 -15 0zM1513.91 506.43 a7.5 7.5 0 1 0 15 0 a7.5 7.5 0 1 0 -15 0zM1448.95 543.93 a7.5 7.5 0 1 0 15 0 a7.5 7.5 0 1 0 -15 0zM1384 506.43 a7.5 7.5 0 1 0 15 0 a7.5 7.5 0 1 0 -15 0zM1384 431.43 a7.5 7.5 0 1 0 15 0 a7.5 7.5 0 1 0 -15 0zM1578.86 543.93 a7.5 7.5 0 1 0 15 0 a7.5 7.5 0 1 0 -15 0zM1578.86 618.93 a7.5 7.5 0 1 0 15 0 a7.5 7.5 0 1 0 -15 0zM1513.91 656.43 a7.5 7.5 0 1 0 15 0 a7.5 7.5 0 1 0 -15 0zM1448.95 618.93 a7.5 7.5 0 1 0 15 0 a7.5 7.5 0 1 0 -15 0z" fill="rgba(69, 123, 157, 1)"></path><path d="M15.81 -43.25L59.11 -18.25L59.11 31.75L15.81 56.75L-27.49 31.75L-27.49 -18.25zM15.81 256.75L59.11 281.75L59.11 331.75L15.81 356.75L-27.49 331.75L-27.49 281.75zM59.11 331.75L102.42 356.75L102.42 406.75L59.11 431.75L15.81 406.75L15.81 356.75zM59.11 481.75L102.42 506.75L102.42 556.75L59.11 581.75L15.81 556.75L15.81 506.75zM145.72 481.75L189.02 506.75L189.02 556.75L145.72 581.75L102.42 556.75L102.42 506.75zM318.93 481.75L362.23 506.75L362.23 556.75L318.93 581.75L275.63 556.75L275.63 506.75zM362.23 256.75L405.53 281.75L405.53 331.75L362.23 356.75L318.93 331.75L318.93 281.75zM492.14 481.75L535.44 506.75L535.44 556.75L492.14 581.75L448.84 556.75L448.84 506.75zM665.35 181.75L708.65 206.75L708.65 256.75L665.35 281.75L622.04 256.75L622.04 206.75zM708.65 106.75L751.95 131.75L751.95 181.75L708.65 206.75L665.35 181.75L665.35 131.75zM925.16 31.75L968.47 56.75L968.47 106.75L925.16 131.75L881.86 106.75L881.86 56.75zM968.47 -43.25L1011.77 -18.25L1011.77 31.75L968.47 56.75L925.16 31.75L925.16 -18.25zM1098.37 481.75L1141.67 506.75L1141.67 556.75L1098.37 581.75L1055.07 556.75L1055.07 506.75zM1228.28 106.75L1271.58 131.75L1271.58 181.75L1228.28 206.75L1184.98 181.75L1184.98 131.75zM1401.49 -43.25L1444.79 -18.25L1444.79 31.75L1401.49 56.75L1358.19 31.75L1358.19 -18.25zM1401.49 406.75L1444.79 431.75L1444.79 481.75L1401.49 506.75L1358.19 481.75L1358.19 431.75z" stroke="rgba(29, 53, 87, 1)" stroke-width="2"></path></g><defs><mask id="SvgjsMask1024"><rect width="1440" height="560" fill="#ffffff"></rect></mask></defs></svg>