<svg xmlns="http://www.w3.org/2000/svg" xmlns:xlink="http://www.w3.org/1999/xlink" width="499" zoomAndPan="magnify" viewBox="0 0 375 56.999996" height="75" preserveAspectRatio="xMidYMid meet" version="1.0"><defs><g/></defs><g fill="#F1FAEE" fill-opacity="1"><g transform="translate(38.371847, 38.377909)"><g><path d="M 10.691406 -24.273438 C 11.222656 -24.304688 11.820312 -24.472656 12.320312 -24.703125 C 12.71875 -24.902344 13.25 -25.300781 13.28125 -25.632812 C 13.316406 -26.066406 13.015625 -26.664062 12.652344 -26.929688 C 10.292969 -28.722656 6.707031 -28.15625 4.980469 -25.765625 C 2.988281 -23.042969 2.257812 -20.054688 3.1875 -16.769531 C 3.753906 -14.777344 3.917969 -13.082031 2.027344 -11.523438 C 0.632812 -10.359375 1.128906 -8.433594 2.789062 -7.769531 C 3.453125 -7.503906 3.554688 -7.171875 3.488281 -6.574219 C 3.320312 -5.179688 3.15625 -3.820312 2.988281 -2.425781 C 2.722656 0.199219 2.625 2.789062 3.421875 5.3125 C 4.050781 7.304688 5.3125 8.699219 7.40625 9.066406 C 9.296875 9.398438 10.824219 8.699219 11.988281 7.238281 C 13.082031 5.84375 12.585938 4.648438 10.859375 4.449219 C 10.558594 4.382812 10.261719 4.382812 10.160156 4.382812 C 8.367188 4.417969 8.234375 4.417969 8.003906 2.890625 C 7.804688 1.496094 7.804688 0.0351562 7.804688 -1.394531 C 7.835938 -3.488281 8.070312 -5.613281 8.035156 -7.703125 C 8.003906 -9.097656 7.4375 -10.460938 8.269531 -11.855469 C 8.535156 -12.320312 8.433594 -13.050781 8.367188 -13.648438 C 8.203125 -14.910156 7.871094 -16.136719 7.738281 -17.433594 C 7.605469 -18.726562 7.4375 -20.054688 7.671875 -21.316406 C 7.9375 -22.910156 8.734375 -24.238281 10.691406 -24.273438 Z M 10.691406 -24.273438 "/></g></g></g><g fill="#F1FAEE"   fill-opacity="1"><g transform="translate(58.128028, 38.377909)"><g><path d="M 25.367188 -5.414062 C 25.269531 -5.878906 25.167969 -6.441406 25.003906 -6.972656 C 23.175781 -13.214844 20.023438 -18.859375 16.933594 -24.074219 C 16.171875 -25.367188 15.175781 -26 14.046875 -26 C 13.382812 -26 12.683594 -25.800781 11.921875 -25.367188 C 10.992188 -24.804688 10.195312 -24.105469 9.730469 -23.410156 C 8.734375 -21.980469 7.902344 -20.386719 7.238281 -18.992188 C 6.042969 -16.503906 5.113281 -14.410156 4.316406 -12.417969 C 3.089844 -9.332031 2.160156 -6.707031 1.363281 -4.21875 C 0.898438 -2.824219 1.628906 -1.695312 2.492188 -1.296875 C 3.554688 -0.863281 4.582031 -1.328125 5.347656 -2.589844 C 5.710938 -3.222656 6.042969 -3.886719 6.375 -4.550781 C 6.675781 -5.148438 7.007812 -5.8125 7.371094 -6.410156 C 7.605469 -6.839844 8.234375 -7.273438 8.699219 -7.273438 C 10.425781 -7.238281 12.152344 -7.171875 13.847656 -7.105469 C 15.109375 -7.039062 16.402344 -7.007812 17.664062 -6.941406 C 18.828125 -6.90625 19.160156 -6.242188 19.359375 -5.546875 C 19.625 -4.550781 19.921875 -3.785156 20.289062 -3.15625 C 20.984375 -1.960938 22.246094 -1.460938 23.476562 -1.828125 C 24.738281 -2.226562 25.46875 -3.386719 25.46875 -5.015625 C 25.433594 -5.148438 25.402344 -5.28125 25.367188 -5.414062 Z M 10.660156 -12.882812 L 13.316406 -20.15625 L 16.867188 -12.882812 Z M 10.660156 -12.882812 "/></g></g></g><g fill="#F1FAEE"   fill-opacity="1"><g transform="translate(90.069954, 38.377909)"><g><path d="M 12.285156 -10.859375 C 13.117188 -11.554688 13.945312 -12.285156 14.542969 -13.183594 C 14.84375 -13.613281 14.84375 -14.609375 14.511719 -15.007812 C 14.210938 -15.40625 13.25 -15.605469 12.75 -15.441406 C 11.621094 -15.109375 10.558594 -14.542969 9.597656 -13.914062 C 8.699219 -13.316406 8.101562 -13.148438 7.40625 -14.144531 C 7.074219 -14.644531 6.542969 -14.976562 6.042969 -15.339844 C 5.28125 -15.9375 4.449219 -16.269531 3.554688 -15.671875 C 2.625 -15.074219 2.457031 -14.113281 2.757812 -13.148438 C 3.023438 -12.285156 3.453125 -11.421875 3.917969 -10.625 C 4.316406 -9.929688 4.21875 -9.496094 3.753906 -8.933594 C 2.855469 -7.835938 1.992188 -6.742188 1.363281 -5.511719 C 1.097656 -4.949219 1.195312 -3.851562 1.59375 -3.488281 C 2.027344 -3.054688 3.023438 -2.957031 3.71875 -3.089844 C 4.316406 -3.1875 4.882812 -3.753906 5.378906 -4.183594 C 5.910156 -4.617188 6.375 -5.113281 6.90625 -5.613281 C 7.902344 -4.449219 8.699219 -3.320312 9.695312 -2.359375 C 10.792969 -1.296875 12.351562 -1.195312 13.316406 -1.925781 C 14.3125 -2.691406 14.542969 -4.117188 13.78125 -5.546875 C 13.25 -6.542969 12.585938 -7.472656 11.921875 -8.367188 C 10.925781 -9.761719 10.925781 -9.730469 12.285156 -10.859375 Z M 12.285156 -10.859375 "/></g></g></g><g fill="#F1FAEE"   fill-opacity="1"><g transform="translate(111.320303, 38.377909)"><g><path d="M 14.3125 -16.070312 C 13.015625 -17.398438 11.421875 -18.261719 9.597656 -18.59375 C 6.941406 -19.09375 4.515625 -18.03125 3.023438 -15.804688 C 1.894531 -14.078125 1.429688 -12.152344 1.261719 -10.128906 C 0.832031 -5.28125 4.183594 -1.230469 10.292969 -1.859375 C 11.15625 -1.925781 12.1875 -2.523438 12.816406 -3.15625 C 13.980469 -4.382812 13.582031 -5.84375 11.988281 -6.34375 C 10.890625 -6.707031 9.695312 -6.742188 8.566406 -6.941406 C 7.96875 -7.074219 7.40625 -7.273438 6.808594 -7.472656 C 8.867188 -7.835938 10.859375 -7.96875 12.652344 -8.601562 C 16.070312 -9.796875 16.835938 -13.449219 14.3125 -16.070312 Z M 11.355469 -12.882812 C 9.863281 -12.71875 8.335938 -12.550781 6.675781 -12.386719 C 6.941406 -13.382812 7.371094 -14.144531 8.367188 -14.445312 C 9.496094 -14.777344 10.890625 -14.210938 11.753906 -13.050781 C 11.554688 -12.949219 11.457031 -12.882812 11.355469 -12.882812 Z M 11.355469 -12.882812 "/></g></g></g><g fill="#F1FAEE"   fill-opacity="1"><g transform="translate(133.599952, 38.377909)"><g><path d="M 5.976562 -21.183594 C 5.910156 -22.046875 5.84375 -22.976562 5.445312 -23.707031 C 5.179688 -24.238281 4.417969 -24.835938 3.851562 -24.835938 C 3.289062 -24.835938 2.625 -24.238281 2.191406 -23.742188 C 1.894531 -23.34375 1.792969 -22.710938 1.726562 -22.148438 C 1.429688 -18.859375 1.164062 -8.367188 1.230469 -6.441406 C 1.230469 -5.613281 1.363281 -4.78125 1.5625 -3.984375 C 1.925781 -2.722656 2.824219 -1.992188 3.851562 -1.960938 C 4.882812 -1.925781 5.910156 -2.589844 6.242188 -3.851562 C 6.574219 -5.28125 6.839844 -6.742188 6.773438 -8.203125 C 6.609375 -12.519531 6.277344 -16.867188 5.976562 -21.183594 Z M 5.976562 -21.183594 "/></g></g></g><g fill="#F1FAEE"   fill-opacity="1"><g transform="translate(146.848209, 38.377909)"><g/></g></g><g fill="#F1FAEE"   fill-opacity="1"><g transform="translate(161.590631, 38.377909)"><g><path d="M 22.910156 -3.023438 C 22.613281 -8.667969 22.28125 -14.644531 21.882812 -21.316406 C 21.816406 -22.3125 21.683594 -23.210938 21.484375 -24.039062 C 21.316406 -24.738281 20.785156 -25.167969 20.054688 -25.234375 C 19.125 -25.367188 18.59375 -24.804688 18.328125 -24.304688 C 18.128906 -23.90625 17.964844 -23.441406 17.898438 -22.976562 C 17.765625 -22.015625 17.699219 -21.050781 17.632812 -20.1875 C 17.566406 -19.160156 17.53125 -18.164062 17.464844 -17.132812 L 17.367188 -15.375 L 6.078125 -15.375 L 5.976562 -16.769531 C 5.945312 -17.300781 5.910156 -17.832031 5.84375 -18.394531 C 5.777344 -19.625 5.710938 -20.886719 5.546875 -22.113281 C 5.414062 -23.277344 4.714844 -24.007812 3.71875 -24.074219 C 2.722656 -24.140625 1.925781 -23.410156 1.660156 -22.246094 C 1.460938 -21.152344 1.164062 -19.789062 1.230469 -18.527344 C 1.429688 -13.480469 1.726562 -8.035156 2.160156 -1.363281 C 2.226562 -0.0664062 3.023438 0.832031 4.117188 0.832031 C 4.152344 0.832031 4.152344 0.832031 4.152344 0.832031 C 5.246094 0.796875 5.976562 -0.0664062 6.109375 -1.460938 C 6.144531 -1.859375 6.144531 -2.324219 6.144531 -2.722656 L 6.144531 -2.855469 C 6.144531 -4.183594 6.109375 -5.546875 6.109375 -6.90625 L 6.078125 -9.199219 C 6.078125 -9.464844 6.078125 -9.730469 6.078125 -10.0625 L 6.078125 -10.890625 L 17.433594 -10.890625 L 17.398438 -10.09375 C 17.398438 -9.796875 17.398438 -9.496094 17.433594 -9.199219 C 17.433594 -8.601562 17.464844 -8.003906 17.464844 -7.40625 C 17.53125 -5.777344 17.597656 -4.085938 17.730469 -2.425781 C 17.796875 -1.660156 18.0625 -0.796875 18.496094 0 C 18.960938 0.898438 19.757812 1.328125 20.785156 1.195312 C 21.78125 1.0625 22.480469 0.464844 22.710938 -0.5 C 22.878906 -1.230469 22.945312 -2.09375 22.910156 -3.023438 Z M 22.910156 -3.023438 "/></g></g></g><g fill="#F1FAEE"   fill-opacity="1"><g transform="translate(190.94267, 38.377909)"><g><path d="M 14.3125 -16.070312 C 13.015625 -17.398438 11.421875 -18.261719 9.597656 -18.59375 C 6.941406 -19.09375 4.515625 -18.03125 3.023438 -15.804688 C 1.894531 -14.078125 1.429688 -12.152344 1.261719 -10.128906 C 0.832031 -5.28125 4.183594 -1.230469 10.292969 -1.859375 C 11.15625 -1.925781 12.1875 -2.523438 12.816406 -3.15625 C 13.980469 -4.382812 13.582031 -5.84375 11.988281 -6.34375 C 10.890625 -6.707031 9.695312 -6.742188 8.566406 -6.941406 C 7.96875 -7.074219 7.40625 -7.273438 6.808594 -7.472656 C 8.867188 -7.835938 10.859375 -7.96875 12.652344 -8.601562 C 16.070312 -9.796875 16.835938 -13.449219 14.3125 -16.070312 Z M 11.355469 -12.882812 C 9.863281 -12.71875 8.335938 -12.550781 6.675781 -12.386719 C 6.941406 -13.382812 7.371094 -14.144531 8.367188 -14.445312 C 9.496094 -14.777344 10.890625 -14.210938 11.753906 -13.050781 C 11.554688 -12.949219 11.457031 -12.882812 11.355469 -12.882812 Z M 11.355469 -12.882812 "/></g></g></g><g fill="#F1FAEE"   fill-opacity="1"><g transform="translate(213.222319, 38.377909)"><g><path d="M 14.875 -13.183594 C 14.476562 -14.609375 13.449219 -15.605469 12.121094 -16.304688 C 9.996094 -17.367188 7.902344 -17.300781 5.8125 -16.171875 C 5.511719 -16.867188 5.414062 -17.597656 4.980469 -18.0625 C 4.515625 -18.5625 3.753906 -19.09375 3.15625 -19.027344 C 2.589844 -18.992188 1.992188 -18.261719 1.5625 -17.730469 C 1.328125 -17.464844 1.328125 -16.933594 1.328125 -16.535156 C 1.261719 -12.585938 1.230469 -8.601562 1.230469 -4.648438 C 1.195312 -4.25 1.296875 -3.820312 1.394531 -3.421875 C 1.761719 -1.828125 3.023438 -0.832031 4.582031 -0.929688 C 6.078125 -1.03125 7.273438 -2.191406 7.4375 -3.785156 C 7.503906 -4.550781 7.273438 -5.347656 7.4375 -6.042969 C 7.804688 -7.636719 8.269531 -9.230469 8.800781 -10.757812 C 9.097656 -11.621094 9.796875 -11.789062 10.660156 -11.390625 C 11.289062 -11.058594 11.953125 -10.660156 12.652344 -10.625 C 13.28125 -10.558594 14.210938 -10.691406 14.578125 -11.125 C 14.941406 -11.589844 15.074219 -12.550781 14.875 -13.183594 Z M 14.875 -13.183594 "/></g></g></g><g fill="#F1FAEE"   fill-opacity="1"><g transform="translate(234.671891, 38.377909)"><g><path d="M 14.875 -13.183594 C 14.476562 -14.609375 13.449219 -15.605469 12.121094 -16.304688 C 9.996094 -17.367188 7.902344 -17.300781 5.8125 -16.171875 C 5.511719 -16.867188 5.414062 -17.597656 4.980469 -18.0625 C 4.515625 -18.5625 3.753906 -19.09375 3.15625 -19.027344 C 2.589844 -18.992188 1.992188 -18.261719 1.5625 -17.730469 C 1.328125 -17.464844 1.328125 -16.933594 1.328125 -16.535156 C 1.261719 -12.585938 1.230469 -8.601562 1.230469 -4.648438 C 1.195312 -4.25 1.296875 -3.820312 1.394531 -3.421875 C 1.761719 -1.828125 3.023438 -0.832031 4.582031 -0.929688 C 6.078125 -1.03125 7.273438 -2.191406 7.4375 -3.785156 C 7.503906 -4.550781 7.273438 -5.347656 7.4375 -6.042969 C 7.804688 -7.636719 8.269531 -9.230469 8.800781 -10.757812 C 9.097656 -11.621094 9.796875 -11.789062 10.660156 -11.390625 C 11.289062 -11.058594 11.953125 -10.660156 12.652344 -10.625 C 13.28125 -10.558594 14.210938 -10.691406 14.578125 -11.125 C 14.941406 -11.589844 15.074219 -12.550781 14.875 -13.183594 Z M 14.875 -13.183594 "/></g></g></g><g fill="#F1FAEE"   fill-opacity="1"><g transform="translate(256.121463, 38.377909)"><g><path d="M 14.3125 -16.070312 C 13.015625 -17.398438 11.421875 -18.261719 9.597656 -18.59375 C 6.941406 -19.09375 4.515625 -18.03125 3.023438 -15.804688 C 1.894531 -14.078125 1.429688 -12.152344 1.261719 -10.128906 C 0.832031 -5.28125 4.183594 -1.230469 10.292969 -1.859375 C 11.15625 -1.925781 12.1875 -2.523438 12.816406 -3.15625 C 13.980469 -4.382812 13.582031 -5.84375 11.988281 -6.34375 C 10.890625 -6.707031 9.695312 -6.742188 8.566406 -6.941406 C 7.96875 -7.074219 7.40625 -7.273438 6.808594 -7.472656 C 8.867188 -7.835938 10.859375 -7.96875 12.652344 -8.601562 C 16.070312 -9.796875 16.835938 -13.449219 14.3125 -16.070312 Z M 11.355469 -12.882812 C 9.863281 -12.71875 8.335938 -12.550781 6.675781 -12.386719 C 6.941406 -13.382812 7.371094 -14.144531 8.367188 -14.445312 C 9.496094 -14.777344 10.890625 -14.210938 11.753906 -13.050781 C 11.554688 -12.949219 11.457031 -12.882812 11.355469 -12.882812 Z M 11.355469 -12.882812 "/></g></g></g><g fill="#F1FAEE"   fill-opacity="1"><g transform="translate(278.401112, 38.377909)"><g><path d="M 14.875 -13.183594 C 14.476562 -14.609375 13.449219 -15.605469 12.121094 -16.304688 C 9.996094 -17.367188 7.902344 -17.300781 5.8125 -16.171875 C 5.511719 -16.867188 5.414062 -17.597656 4.980469 -18.0625 C 4.515625 -18.5625 3.753906 -19.09375 3.15625 -19.027344 C 2.589844 -18.992188 1.992188 -18.261719 1.5625 -17.730469 C 1.328125 -17.464844 1.328125 -16.933594 1.328125 -16.535156 C 1.261719 -12.585938 1.230469 -8.601562 1.230469 -4.648438 C 1.195312 -4.25 1.296875 -3.820312 1.394531 -3.421875 C 1.761719 -1.828125 3.023438 -0.832031 4.582031 -0.929688 C 6.078125 -1.03125 7.273438 -2.191406 7.4375 -3.785156 C 7.503906 -4.550781 7.273438 -5.347656 7.4375 -6.042969 C 7.804688 -7.636719 8.269531 -9.230469 8.800781 -10.757812 C 9.097656 -11.621094 9.796875 -11.789062 10.660156 -11.390625 C 11.289062 -11.058594 11.953125 -10.660156 12.652344 -10.625 C 13.28125 -10.558594 14.210938 -10.691406 14.578125 -11.125 C 14.941406 -11.589844 15.074219 -12.550781 14.875 -13.183594 Z M 14.875 -13.183594 "/></g></g></g><g fill="#F1FAEE"   fill-opacity="1"><g transform="translate(299.850684, 38.377909)"><g><path d="M 17.066406 -6.640625 C 16.570312 -8.933594 16.203125 -11.289062 15.707031 -13.613281 C 15.539062 -14.34375 15.339844 -15.308594 14.808594 -15.738281 C 13.214844 -16.96875 11.457031 -18.03125 9.230469 -17.664062 C 5.347656 -16.96875 1.5625 -12.71875 1.230469 -8.566406 C 0.929688 -4.75 3.984375 -2.09375 7.769531 -2.988281 C 8.765625 -3.253906 9.695312 -3.820312 10.625 -4.285156 C 10.957031 -4.449219 11.222656 -4.714844 11.554688 -4.949219 C 11.722656 -4.714844 11.855469 -4.582031 11.953125 -4.417969 C 13.050781 -2.757812 14.476562 -2.125 15.804688 -2.691406 C 17.101562 -3.253906 17.5 -4.648438 17.066406 -6.640625 Z M 7.4375 -7.804688 C 7.074219 -7.671875 6.542969 -7.636719 6.210938 -7.804688 C 6.011719 -7.902344 6.011719 -8.601562 6.144531 -8.933594 C 6.875 -10.992188 8.035156 -12.652344 10.261719 -13.582031 C 10.660156 -11.023438 9.464844 -8.601562 7.4375 -7.804688 Z M 7.4375 -7.804688 "/></g></g></g><g fill="#F1FAEE"   fill-opacity="1"><g transform="translate(323.558107, 38.377909)"><g><path d="M 10.691406 -12.71875 C 9.929688 -13.117188 9.828125 -13.613281 9.929688 -14.34375 C 10.226562 -16.667969 10.558594 -18.992188 10.824219 -21.316406 C 10.992188 -23.011719 10.726562 -24.636719 9.828125 -26.132812 C 8.535156 -28.324219 4.714844 -28.355469 3.386719 -26.164062 C 3.1875 -25.800781 3.15625 -25.070312 3.386719 -24.738281 C 3.585938 -24.4375 4.285156 -24.339844 4.75 -24.371094 C 5.214844 -24.40625 5.679688 -24.671875 6.109375 -24.835938 C 6.90625 -25.136719 7.304688 -24.804688 7.304688 -24.039062 C 7.273438 -23.175781 7.207031 -22.3125 7.007812 -21.484375 C 6.640625 -19.824219 6.109375 -18.195312 5.710938 -16.535156 C 5.246094 -14.578125 4.78125 -12.550781 6.078125 -10.660156 C 6.175781 -10.492188 6.144531 -10.195312 6.078125 -9.996094 C 5.046875 -7.40625 5.179688 -4.683594 5.246094 -1.960938 C 5.246094 -0.464844 5.28125 1.0625 5.246094 2.558594 C 5.214844 3.917969 4.980469 4.117188 3.621094 3.984375 C 2.125 3.820312 1.164062 4.683594 1.230469 6.109375 C 1.261719 7.40625 2.292969 8.535156 3.820312 8.832031 C 6.34375 9.398438 9.265625 7.40625 9.796875 4.683594 C 9.960938 3.753906 10.027344 2.824219 10.027344 1.859375 C 9.996094 -0.765625 9.894531 -3.421875 9.894531 -6.042969 C 9.894531 -7.371094 10.027344 -8.632812 11.15625 -9.664062 C 12.152344 -10.558594 11.886719 -12.085938 10.691406 -12.71875 Z M 10.691406 -12.71875 "/></g></g></g></svg>