<svg id="visual" viewBox="0 0 960 540" width="960" height="540" xmlns="http://www.w3.org/2000/svg" xmlns:xlink="http://www.w3.org/1999/xlink" version="1.1"><rect width="960" height="540" fill="#e0fbfc"></rect><g><g transform="translate(318 538)"><path d="M0 -126.9L109.9 -63.4L109.9 63.4L0 126.9L-109.9 63.4L-109.9 -63.4Z" fill="none" stroke="#EE6C4D" stroke-width="2"></path></g><g transform="translate(718 273)"><path d="M0 -83L71.9 -41.5L71.9 41.5L0 83L-71.9 41.5L-71.9 -41.5Z" fill="none" stroke="#EE6C4D" stroke-width="2"></path></g><g transform="translate(168 36)"><path d="M0 -114L98.7 -57L98.7 57L0 114L-98.7 57L-98.7 -57Z" fill="none" stroke="#EE6C4D" stroke-width="2"></path></g><g transform="translate(927 487)"><path d="M0 -110L95.3 -55L95.3 55L0 110L-95.3 55L-95.3 -55Z" stroke="#EE6C4D" fill="none" stroke-width="2"></path></g><g transform="translate(38 444)"><path d="M0 -82L71 -41L71 41L0 82L-71 41L-71 -41Z" stroke="#EE6C4D" fill="none" stroke-width="2"></path></g><g transform="translate(450 116)"><path d="M0 -89L77.1 -44.5L77.1 44.5L0 89L-77.1 44.5L-77.1 -44.5Z" stroke="#EE6C4D" fill="none" stroke-width="2"></path></g><g transform="translate(931 101)"><path d="M0 -92L79.7 -46L79.7 46L0 92L-79.7 46L-79.7 -46Z" stroke="#EE6C4D" fill="none" stroke-width="2"></path></g><g transform="translate(247 285)"><path d="M0 -89L77.1 -44.5L77.1 44.5L0 89L-77.1 44.5L-77.1 -44.5Z" stroke="#EE6C4D" fill="none" stroke-width="2"></path></g></g></svg>